<svg width="67" height="67" viewBox="0 0 67 67" fill="none" xmlns="http://www.w3.org/2000/svg">
<path d="M49.1334 14.8237L33.3605 6.33705C31.6855 5.44372 29.7034 5.44372 28.0284 6.33705L12.2834 14.8237C11.1388 15.4658 10.413 16.6941 10.413 18.0341C10.413 19.4021 11.1109 20.6304 12.2834 21.2446L28.0563 29.7312C28.8938 30.1779 29.815 30.4012 30.7084 30.4012C31.6017 30.4012 32.5509 30.1779 33.3605 29.7312L49.1334 21.2446C50.278 20.6304 51.0038 19.4021 51.0038 18.0341C51.0038 16.6941 50.278 15.4658 49.1334 14.8237Z" fill="black"/>
<path d="M25.46 32.6904L10.8038 25.3762C9.65921 24.7899 8.37504 24.8737 7.28629 25.5158C6.22546 26.1858 5.58337 27.3304 5.58337 28.5866V42.4333C5.58337 44.8341 6.92337 46.9837 9.07296 48.0724L23.7292 55.3866C24.2317 55.6379 24.79 55.7774 25.3484 55.7774C25.9905 55.7774 26.6605 55.582 27.2467 55.247C28.3075 54.577 28.9496 53.4324 28.9496 52.1762V38.3295C28.9217 35.9287 27.5817 33.7791 25.46 32.6904Z" fill="black"/>
<path d="M55.8333 28.5866V35.4541C54.4933 35.0633 53.0696 34.8958 51.6458 34.8958C47.8492 34.8958 44.1362 36.2079 41.205 38.5529C37.185 41.7074 34.8958 46.4812 34.8958 51.6458C34.8958 53.0137 35.0633 54.3816 35.4262 55.6937C35.0075 55.6379 34.5887 55.4704 34.1979 55.2191C33.1371 54.577 32.495 53.4324 32.495 52.1762V38.3295C32.495 35.9287 33.835 33.7791 35.9567 32.6904L50.6129 25.3762C51.7575 24.7899 53.0417 24.8737 54.1304 25.5158C55.1912 26.1858 55.8333 27.3304 55.8333 28.5866Z" fill="black"/>
<path d="M61.3608 43.7454C59.0716 40.9258 55.5821 39.1392 51.6458 39.1392C48.6866 39.1392 45.9508 40.1721 43.8012 41.9029C40.8979 44.1921 39.0833 47.7375 39.0833 51.7017C39.0833 54.0467 39.7533 56.28 40.8979 58.1783C41.6516 59.4346 42.6008 60.5233 43.7175 61.4167H43.7454C45.895 63.2033 48.6587 64.2642 51.6458 64.2642C54.8283 64.2642 57.7037 63.0917 59.9091 61.1375C60.8862 60.3 61.7237 59.295 62.3937 58.1783C63.5383 56.28 64.2083 54.0467 64.2083 51.7017C64.2083 48.6867 63.1475 45.895 61.3608 43.7454ZM57.955 50.1383L51.255 56.3358C50.8641 56.6987 50.3337 56.8942 49.8312 56.8942C49.3008 56.8942 48.7704 56.6987 48.3516 56.28L45.2529 53.1812C44.4433 52.3717 44.4433 51.0317 45.2529 50.2221C46.0625 49.4125 47.4025 49.4125 48.2121 50.2221L49.8871 51.8971L55.1075 47.0675C55.945 46.2858 57.285 46.3417 58.0666 47.1792C58.8762 48.0446 58.8204 49.3567 57.955 50.1383Z" fill="black"/>
</svg>
