<svg width="18" height="19" viewBox="0 0 18 19" fill="none" xmlns="http://www.w3.org/2000/svg">
<path d="M1.48859 2.38876H2.73645C3.51099 2.38876 4.12057 3.05572 4.05603 3.82309L3.46078 10.966C3.36038 12.135 4.28552 13.139 5.46166 13.139H13.0995C14.1322 13.139 15.0358 12.2928 15.1147 11.2672L15.5019 5.88852C15.588 4.69803 14.6844 3.72985 13.4867 3.72985H4.22815" stroke="white" stroke-width="1.47531" stroke-miterlimit="10" stroke-linecap="round" stroke-linejoin="round"/>
<path d="M11.7082 16.7321C12.2033 16.7321 12.6046 16.3307 12.6046 15.8356C12.6046 15.3405 12.2033 14.9391 11.7082 14.9391C11.2131 14.9391 10.8117 15.3405 10.8117 15.8356C10.8117 16.3307 11.2131 16.7321 11.7082 16.7321Z" stroke="white" stroke-width="1.47531" stroke-miterlimit="10" stroke-linecap="round" stroke-linejoin="round"/>
<path d="M5.97092 16.7321C6.46601 16.7321 6.86737 16.3307 6.86737 15.8356C6.86737 15.3405 6.46601 14.9391 5.97092 14.9391C5.47582 14.9391 5.07446 15.3405 5.07446 15.8356C5.07446 16.3307 5.47582 16.7321 5.97092 16.7321Z" stroke="white" stroke-width="1.47531" stroke-miterlimit="10" stroke-linecap="round" stroke-linejoin="round"/>
<path d="M6.50873 6.69174H15.1147" stroke="white" stroke-width="1.47531" stroke-miterlimit="10" stroke-linecap="round" stroke-linejoin="round"/>
</svg>
