<svg width="18" height="18" viewBox="0 0 18 18" fill="none" xmlns="http://www.w3.org/2000/svg">
<path d="M1.88147 1.94104H3.12934C3.90387 1.94104 4.51346 2.608 4.44891 3.37537L3.85367 10.5183C3.75326 11.6873 4.6784 12.6913 5.85455 12.6913H13.4923C14.5251 12.6913 15.4287 11.8451 15.5076 10.8195L15.8948 5.4408C15.9809 4.25031 15.0773 3.28213 13.8796 3.28213H4.62104" stroke="white" stroke-width="1.47531" stroke-miterlimit="10" stroke-linecap="round" stroke-linejoin="round"/>
<path d="M12.101 16.2843C12.5961 16.2843 12.9975 15.883 12.9975 15.3879C12.9975 14.8928 12.5961 14.4914 12.101 14.4914C11.6059 14.4914 11.2046 14.8928 11.2046 15.3879C11.2046 15.883 11.6059 16.2843 12.101 16.2843Z" stroke="white" stroke-width="1.47531" stroke-miterlimit="10" stroke-linecap="round" stroke-linejoin="round"/>
<path d="M6.36374 16.2843C6.85884 16.2843 7.26019 15.883 7.26019 15.3879C7.26019 14.8928 6.85884 14.4914 6.36374 14.4914C5.86864 14.4914 5.46729 14.8928 5.46729 15.3879C5.46729 15.883 5.86864 16.2843 6.36374 16.2843Z" stroke="white" stroke-width="1.47531" stroke-miterlimit="10" stroke-linecap="round" stroke-linejoin="round"/>
<path d="M6.90161 6.24402H15.5076" stroke="white" stroke-width="1.47531" stroke-miterlimit="10" stroke-linecap="round" stroke-linejoin="round"/>
</svg>
