<svg width="30" height="31" viewBox="0 0 30 31" fill="none" xmlns="http://www.w3.org/2000/svg">
<path d="M17.1066 5.00147L19.2994 9.38714C19.5984 9.99764 20.3958 10.5832 21.0686 10.6954L25.0431 11.3557C27.5848 11.7793 28.1829 13.6233 26.3514 15.4423L23.2615 18.5322C22.7382 19.0555 22.4516 20.0647 22.6136 20.7874L23.4982 24.6124C24.1959 27.64 22.5887 28.8112 19.9099 27.2288L16.1846 25.0235C15.5118 24.6248 14.4029 24.6248 13.7176 25.0235L9.99232 27.2288C7.32604 28.8112 5.70633 27.6275 6.40405 24.6124L7.28866 20.7874C7.45063 20.0647 7.16407 19.0555 6.64078 18.5322L3.55087 15.4423C1.73182 13.6233 2.3174 11.7793 4.8591 11.3557L8.83361 10.6954C9.49395 10.5832 10.2913 9.99764 10.5904 9.38714L12.7832 5.00147C13.9793 2.62174 15.9229 2.62174 17.1066 5.00147Z" stroke="#D4A80A" stroke-width="1.86889" stroke-linecap="round" stroke-linejoin="round"/>
</svg>
